<svg version="1.1" id="Layer_1" xmlns="http://www.w3.org/2000/svg" xmlns:xlink="http://www.w3.org/1999/xlink" x="0px" y="0px"
	 width="100%" viewBox="0 0 740 740" enable-background="new 0 0 740 740" xml:space="preserve">
<path fill="#181B26" opacity="1.000000" stroke="none" 
	d="
M436.000000,741.000000 
	C290.666656,741.000000 145.833328,741.000000 1.000000,741.000000 
	C1.000000,494.333344 1.000000,247.666672 1.000000,1.000000 
	C247.666672,1.000000 494.333344,1.000000 741.000000,1.000000 
	C741.000000,247.666672 741.000000,494.333344 741.000000,741.000000 
	C639.500000,741.000000 538.000000,741.000000 436.000000,741.000000 
M576.441711,721.065063 
	C592.077332,726.713745 608.288208,728.448730 624.675537,726.741333 
	C688.603882,720.080200 733.367737,663.066467 725.133606,599.203003 
	C718.549622,548.138000 676.215393,507.078613 625.048035,502.131500 
	C565.774902,496.400726 512.974304,536.215210 502.293396,594.929810 
	C501.593658,598.776245 500.342010,599.753845 496.642456,599.738525 
	C464.978210,599.607117 433.313141,599.666443 401.648346,599.652649 
	C400.191650,599.652039 398.734985,599.498962 397.018372,599.402283 
	C397.018372,479.234711 397.018372,359.324127 397.018372,239.442886 
	C456.207855,230.850220 500.505737,178.087708 493.863678,114.310066 
	C488.092499,58.894608 440.983276,16.090258 384.268707,14.402483 
	C328.693207,12.748605 279.756775,53.077900 270.385406,108.817886 
	C265.801514,136.082520 270.662384,161.976456 285.144379,185.616928 
	C303.816650,216.097656 331.478333,233.469971 366.518036,239.336487 
	C366.518036,296.108002 366.518036,352.537201 366.518036,409.260803 
	C324.658844,409.260803 283.080872,409.260803 241.525101,409.260803 
	C233.609055,346.429047 173.157471,302.925171 110.626244,312.885315 
	C58.571423,321.176727 17.185894,368.196259 16.366230,421.463989 
	C15.488721,478.490936 54.833607,526.304932 110.912903,535.669250 
	C137.443024,540.099304 162.725769,535.534851 185.957428,521.779541 
	C217.418762,503.151581 235.271317,475.116272 241.216080,439.460693 
	C283.201904,439.460693 324.780090,439.460693 366.802673,439.460693 
	C366.802673,441.752228 366.801880,443.716949 366.802765,445.681671 
	C366.827484,500.845062 367.087463,556.010193 366.686462,611.170471 
	C366.602386,622.737549 373.992126,629.585205 385.061340,629.440674 
	C422.219482,628.955322 459.387878,629.247253 496.552338,629.278198 
	C498.864410,629.280151 501.325653,628.415344 502.065216,632.371033 
	C510.131866,675.518982 534.836914,704.934021 576.441711,721.065063 
z"/>
<path fill="#AFDBD9" opacity="1.000000" stroke="none" 
	d="
M576.064880,720.963013 
	C534.836914,704.934021 510.131866,675.518982 502.065216,632.371033 
	C501.325653,628.415344 498.864410,629.280151 496.552338,629.278198 
	C459.387878,629.247253 422.219482,628.955322 385.061340,629.440674 
	C373.992126,629.585205 366.602386,622.737549 366.686462,611.170471 
	C367.087463,556.010193 366.827484,500.845062 366.802765,445.681671 
	C366.801880,443.716949 366.802673,441.752228 366.802673,439.460693 
	C324.780090,439.460693 283.201904,439.460693 241.216080,439.460693 
	C235.271317,475.116272 217.418762,503.151581 185.957428,521.779541 
	C162.725769,535.534851 137.443024,540.099304 110.912903,535.669250 
	C54.833607,526.304932 15.488721,478.490936 16.366230,421.463989 
	C17.185894,368.196259 58.571423,321.176727 110.626244,312.885315 
	C173.157471,302.925171 233.609055,346.429047 241.525101,409.260803 
	C283.080872,409.260803 324.658844,409.260803 366.518036,409.260803 
	C366.518036,352.537201 366.518036,296.108002 366.518036,239.336487 
	C331.478333,233.469971 303.816650,216.097656 285.144379,185.616928 
	C270.662384,161.976456 265.801514,136.082520 270.385406,108.817886 
	C279.756775,53.077900 328.693207,12.748605 384.268707,14.402483 
	C440.983276,16.090258 488.092499,58.894608 493.863678,114.310066 
	C500.505737,178.087708 456.207855,230.850220 397.018372,239.442886 
	C397.018372,359.324127 397.018372,479.234711 397.018372,599.402283 
	C398.734985,599.498962 400.191650,599.652039 401.648346,599.652649 
	C433.313141,599.666443 464.978210,599.607117 496.642456,599.738525 
	C500.342010,599.753845 501.593658,598.776245 502.293396,594.929810 
	C512.974304,536.215210 565.774902,496.400726 625.048035,502.131500 
	C676.215393,507.078613 718.549622,548.138000 725.133606,599.203003 
	C733.367737,663.066467 688.603882,720.080200 624.675537,726.741333 
	C608.288208,728.448730 592.077332,726.713745 576.064880,720.963013 
M199.786530,468.206451 
	C209.969162,451.743134 214.015533,433.758148 211.701141,414.670197 
	C206.115494,368.602631 165.464386,336.772339 119.327522,341.900848 
	C74.995705,346.828735 41.824039,387.718872 46.298172,431.922882 
	C49.890385,467.413605 75.296669,496.952026 109.169815,505.020142 
	C144.528961,513.442200 179.582596,499.365204 199.786530,468.206451 
M406.437286,47.926056 
	C346.403534,29.921350 289.558075,79.933456 299.868317,141.674911 
	C306.286469,180.109131 341.775787,213.835739 389.848022,210.098892 
	C429.561584,207.011826 463.334381,171.666809 464.725250,130.938324 
	C466.019684,93.034698 444.307312,61.761005 406.437286,47.926056 
M661.023926,682.570862 
	C688.016785,662.552551 700.221863,635.553223 695.447876,602.507263 
	C688.818420,556.617737 648.898193,527.040283 602.691589,532.045593 
	C556.966309,536.998718 522.811279,583.125732 531.398132,628.328918 
	C542.890137,688.825623 608.968750,716.816589 661.023926,682.570862 
z"/>
<path fill="#181C27" opacity="1.000000" stroke="none" 
	d="
M199.573364,468.503754 
	C179.582596,499.365204 144.528961,513.442200 109.169815,505.020142 
	C75.296669,496.952026 49.890385,467.413605 46.298172,431.922882 
	C41.824039,387.718872 74.995705,346.828735 119.327522,341.900848 
	C165.464386,336.772339 206.115494,368.602631 211.701141,414.670197 
	C214.015533,433.758148 209.969162,451.743134 199.573364,468.503754 
z"/>
<path fill="#181C27" opacity="1.000000" stroke="none" 
	d="
M406.827271,48.016045 
	C444.307312,61.761005 466.019684,93.034698 464.725250,130.938324 
	C463.334381,171.666809 429.561584,207.011826 389.848022,210.098892 
	C341.775787,213.835739 306.286469,180.109131 299.868317,141.674911 
	C289.558075,79.933456 346.403534,29.921350 406.827271,48.016045 
z"/>
<path fill="#181C27" opacity="1.000000" stroke="none" 
	d="
M660.729004,682.779724 
	C608.968750,716.816589 542.890137,688.825623 531.398132,628.328918 
	C522.811279,583.125732 556.966309,536.998718 602.691589,532.045593 
	C648.898193,527.040283 688.818420,556.617737 695.447876,602.507263 
	C700.221863,635.553223 688.016785,662.552551 660.729004,682.779724 
z"/>
</svg>